<svg id="Layer_1" data-name="Layer 1" xmlns="http://www.w3.org/2000/svg" viewBox="0 0 1000 1000"><defs><style>.cls-1,.cls-2{fill:#2c388d;}.cls-2{font-size:152.12px;font-family:Montserrat-ExtraBold, Montserrat;font-weight:800;}.cls-3{fill:none;stroke:#2b398d;stroke-miterlimit:10;stroke-width:2px;}</style></defs><title>hình chữ nhật-01-01</title><path class="cls-1" d="M383.29,191.69a40.06,40.06,0,0,0-66.41,0,39.09,39.09,0,0,0-5,10.48,39.86,39.86,0,0,0,0,23.83,38.89,38.89,0,0,0,5,10.47,40,40,0,0,0,66.41,0,39.22,39.22,0,0,0,5-10.47,40.18,40.18,0,0,0,0-23.83,39.43,39.43,0,0,0-5-10.48"/><path class="cls-1" d="M618.51,118.86a119.56,119.56,0,0,0-117,144.36,104.58,104.58,0,0,0-34.63.68,118.4,118.4,0,0,0,2.79-25.45,119.68,119.68,0,1,0-95.06,117,112.92,112.92,0,0,0,49.85,115.66V433.06a49.36,49.36,0,0,1,26.63-43.81,51.51,51.51,0,0,0,70.66,0,49.35,49.35,0,0,1,26.62,43.85v38.15a113.67,113.67,0,0,0,51.77-95.39,115.54,115.54,0,0,0-1.8-19.65,119.53,119.53,0,1,0,20.16-237.34M411.72,290.23a49.36,49.36,0,0,0-26.31-38.39,51.52,51.52,0,0,1-70.68,0,49.44,49.44,0,0,0-26.63,43.85v28.54a21.41,21.41,0,0,0,.22,2.53A108,108,0,1,1,454,266.87a113.69,113.69,0,0,0-42.31,23.37M526,357.58a46.29,46.29,0,0,1-1.34,5.82,40.18,40.18,0,1,1,1.8-11.91,41.41,41.41,0,0,1-.46,6.09m154.25-30.84a19.11,19.11,0,0,0,.21-2.39v-28.7a49.36,49.36,0,0,0-26.65-43.85,51.5,51.5,0,0,1-70.67,0A49.44,49.44,0,0,0,557.3,287a113,113,0,0,0-43-21.3,106.63,106.63,0,0,1-3.63-27.23,107.86,107.86,0,1,1,169.63,88.29"/><path class="cls-1" d="M651.71,191.69a38.5,38.5,0,0,0-4.88-5.92,40.11,40.11,0,0,0-66.58,16.4,40.5,40.5,0,0,0,0,23.83,39.86,39.86,0,0,0,5,10.47,40.9,40.9,0,0,0,4.88,5.94,40.08,40.08,0,0,0,56.65,0,40,40,0,0,0,9.93-40.23,39.68,39.68,0,0,0-5-10.49"/><path class="cls-1" d="M601.27,503.92a19.18,19.18,0,0,0-19.14,19.13L582,536v-14.4a19.17,19.17,0,0,0-38.34,0,19.17,19.17,0,1,0-38.33,0v-65.1a19.17,19.17,0,0,0-38.33,0V573.91l-30.51-30.75a20.5,20.5,0,0,0-29.05,28.92L467,631.65v41.87H603.28v-28.9l5.42-4.27a30.25,30.25,0,0,0,11.64-23.82l.16-93.44A19.29,19.29,0,0,0,601.27,504"/><text class="cls-2" transform="translate(438.52 864.68)">A</text><circle class="cls-3" cx="498.3" cy="820.41" r="97.93"/></svg>