<svg id="Layer_1" data-name="Layer 1" xmlns="http://www.w3.org/2000/svg" viewBox="0 0 1000 1000"><defs><style>.cls-1{font-size:152.12px;font-family:Montserrat-ExtraBold, Montserrat;font-weight:800;}.cls-1,.cls-3{fill:#2c388d;}.cls-2{fill:none;stroke:#2b398d;stroke-miterlimit:10;stroke-width:2px;}</style></defs><title>hình chữ nhật-01-01</title><text class="cls-1" transform="translate(439.17 871.68)">B</text><circle class="cls-2" cx="497.66" cy="820.41" r="97.93"/><path class="cls-3" d="M269.34,255.92a4.55,4.55,0,0,0,1.55-.26l26.95-9.33a4.72,4.72,0,1,0-2.79-9,2.29,2.29,0,0,0-.28.09l-2.22.76a298,298,0,0,1,191.57-74.36V274.5l-2.47-4.71a4.72,4.72,0,1,0-8.36,4.38l11.27,21.53.49,1,1.68,3.21a4.71,4.71,0,0,0,4.18,2.52,4.82,4.82,0,0,0,4.25-2.65l12.46-25.68a4.72,4.72,0,0,0-8.39-4.32,2,2,0,0,0-.1.21l-2.41,4.95V163.81a298,298,0,0,1,190.77,73.67l-3.93-1.28a4.72,4.72,0,1,0-2.95,9h0L709,254.49a4.57,4.57,0,0,0,1.47.24,4.71,4.71,0,0,0,4.72-4.71,4.59,4.59,0,0,0-.26-1.55l-9.33-27a4.73,4.73,0,0,0-8.94,3.08h0l2.07,5.95c-119.18-106.42-299.42-105.89-418,1.23l2.44-7.42a4.72,4.72,0,0,0-9-3h0l-9.33,28.36a4.71,4.71,0,0,0,3,6,4.8,4.8,0,0,0,1.5.24"/><path class="cls-3" d="M548.45,483.85a92.84,92.84,0,0,1-117.1,0,82,82,0,0,0-52.53,76.48V597a29.56,29.56,0,0,0,29.54,29.57h163A29.56,29.56,0,0,0,600.94,597V560.33a82,82,0,0,0-52.49-76.48"/><path class="cls-3" d="M409.69,411.85a80,80,0,0,0,18.64,51.37c1.67,2,3.41,3.86,5.26,5.72a71.42,71.42,0,0,0,5.69,5.09,77.21,77.21,0,0,0,7.72,5.5c1.64,1,3.27,2.07,5,3a82,82,0,0,0,14.28,6,80.87,80.87,0,0,0,47.28,0,82.38,82.38,0,0,0,14.29-6c1.7-1,3.32-1.93,5-3a80,80,0,0,0,7.71-5.51c1.93-1.61,3.86-3.3,5.65-5.09a73.15,73.15,0,0,0,5.27-5.72,80.2,80.2,0,1,0-141.74-51.37"/><path class="cls-3" d="M318.45,395.1a75,75,0,0,1-93.68,0,68.33,68.33,0,0,0-45.7,64.43v25.39a24.62,24.62,0,0,0,24.62,24.62H339.48a24.63,24.63,0,0,0,24.64-24.62V459.53a68.33,68.33,0,0,0-45.67-64.43"/><path class="cls-3" d="M237,388.4q2.44,1.65,5,3a62.51,62.51,0,0,0,59.32,0c1.72-1,3.41-1.93,5-3.05a60.45,60.45,0,0,0,9.16-7.5,54,54,0,0,0,4.11-4.44,62.55,62.55,0,1,0-91.84,4.44,59.54,59.54,0,0,0,9.18,7.5"/><path class="cls-3" d="M755,395.1a74.93,74.93,0,0,1-93.67,0,68.33,68.33,0,0,0-45.71,64.44v25.39a24.63,24.63,0,0,0,24.65,24.61H776.09a24.61,24.61,0,0,0,24.63-24.6V459.53A68.34,68.34,0,0,0,755,395.1"/><path class="cls-3" d="M645.69,336.46a62.48,62.48,0,0,0,27.87,52c1.6,1.09,3.29,2.1,5,3a62.51,62.51,0,0,0,59.32,0c1.74-1,3.41-1.93,5-3.05a61.89,61.89,0,0,0,9.2-7.5c1.43-1.41,2.8-2.89,4.08-4.43a62.49,62.49,0,1,0-110.5-40"/></svg>