<svg id="Layer_1" data-name="Layer 1" xmlns="http://www.w3.org/2000/svg" viewBox="0 0 1000 1000"><defs><style>.cls-1{font-size:152.12px;font-family:Montserrat-ExtraBold, Montserrat;font-weight:800;}.cls-1,.cls-3{fill:#2c388d;}.cls-2{fill:none;stroke:#2b398d;stroke-miterlimit:10;stroke-width:2px;}</style></defs><title>hình chữ nhật-01-01</title><text class="cls-1" transform="translate(443.52 874.68)">C</text><circle class="cls-2" cx="503.3" cy="820.41" r="97.93"/><path class="cls-3" d="M512.55,300.93A108.57,108.57,0,1,0,621.12,409.5,108.68,108.68,0,0,0,512.55,300.93m0,205.6a97.06,97.06,0,1,1-1.72-194.11h1.72a97.06,97.06,0,0,1,0,194.11"/><path class="cls-3" d="M512.55,358.73a50.72,50.72,0,1,0,50.72,50.77,50.72,50.72,0,0,0-50.72-50.77m0,89.93a39.22,39.22,0,1,1,39.21-39.23v0a39.25,39.25,0,0,1-39.21,39.2"/><path class="cls-3" d="M695.9,439.76a112.41,112.41,0,0,0-22.55,2.29,163.44,163.44,0,0,0,3.06-26.83h10.12a5.75,5.75,0,0,0,.84-11.46,3.93,3.93,0,0,0-.84,0H676.45a166.72,166.72,0,0,0-3.11-26.82A113.8,113.8,0,0,0,809.71,265.39c0-62.75-51.05-113.87-113.81-113.87-61.27,0-111.24,48.7-113.59,109.41a164.54,164.54,0,0,0-64-15.38V235.44a5.75,5.75,0,0,0-11.47-.84,5.89,5.89,0,0,0,0,.84v10.08c-24.09.65-44.34,5.46-64,15.29-2.45-60.66-52.39-109.29-113.6-109.29a113.81,113.81,0,1,0,22.57,225.37,164.38,164.38,0,0,0-3.12,26.81h-10.1a5.75,5.75,0,1,0-.84,11.47,5.89,5.89,0,0,0,.84,0h10.1a167,167,0,0,0,3.1,26.83,113.79,113.79,0,1,0-22.55,225.32c61.28,0,111.25-48.72,113.58-109.43a164.29,164.29,0,0,0,64,15.4v10.12a5.75,5.75,0,0,0,11.47.84,5.89,5.89,0,0,0,0-.84V573.34a164,164,0,0,0,64-15.4c2.29,60.72,52.33,109.43,113.6,109.43a113.81,113.81,0,0,0,0-227.61m0-276.77A102.32,102.32,0,1,1,593.58,265.31,102.42,102.42,0,0,1,695.9,163M329.19,367.65A102.32,102.32,0,1,1,431.5,265.34,102.42,102.42,0,0,1,329.19,367.65m0,288.24A102.32,102.32,0,1,1,431.5,553.57,102.42,102.42,0,0,1,329.19,655.89m189.09-94V552.1a5.75,5.75,0,0,0-11.47,0v9.75A152.71,152.71,0,0,1,442.59,545a113.94,113.94,0,0,0-78.34-99.69,152.57,152.57,0,0,1-4.11-30.15h9.75a5.75,5.75,0,0,0,.84-11.47,5.89,5.89,0,0,0-.84,0h-9.76a153.5,153.5,0,0,1,4.1-30.16,113.89,113.89,0,0,0,78.32-99.71C462.31,263,482.4,257.73,506.78,257v9.79a5.75,5.75,0,1,0,11.47.84,5.89,5.89,0,0,0,0-.84V257a152.87,152.87,0,0,1,64.22,16.83,114,114,0,0,0,78.36,99.69A153.12,153.12,0,0,1,665,403.69h-9.76a5.75,5.75,0,0,0-.84,11.47,5.89,5.89,0,0,0,.84,0h9.75a151.84,151.84,0,0,1-4.12,30.15A114,114,0,0,0,582.52,545a152.53,152.53,0,0,1-64.22,16.82m177.62,94A102.32,102.32,0,1,1,798.23,553.57,102.42,102.42,0,0,1,695.92,655.89"/><path class="cls-3" d="M653.6,331.51h84.61a15.34,15.34,0,0,0,15.35-15.34V300.34a42.56,42.56,0,0,0-24.68-38.61,50.16,50.16,0,0,1-65.93,0,42.6,42.6,0,0,0-24.7,38.63v15.81a15.34,15.34,0,0,0,15.34,15.34h0"/><path class="cls-3" d="M657.77,231.55a42.62,42.62,0,0,0,1.32,4.74,39.16,39.16,0,0,0,3.42,7.3,34.36,34.36,0,0,0,2.21,3.29,38.75,38.75,0,0,0,49.67,11,38.6,38.6,0,0,0,8.88-6.56c.89-.89,1.74-1.81,2.54-2.77a38.51,38.51,0,0,0,5.93-9.66,39,39,0,1,0-74.57-11.26,36.73,36.73,0,0,0,.6,3.9"/><path class="cls-3" d="M362.17,261.73a50.2,50.2,0,0,1-65.94,0,42.58,42.58,0,0,0-24.71,38.61v15.83a15.36,15.36,0,0,0,15.36,15.34H371.5a15.34,15.34,0,0,0,15.34-15.35V300.33a42.57,42.57,0,0,0-24.67-38.6"/><path class="cls-3" d="M291.05,231.55a37.92,37.92,0,0,0,2.29,7.37,38.58,38.58,0,0,0,6,9.66c.82,1,1.67,1.88,2.56,2.77a38.94,38.94,0,0,0,54.69,0c.88-.89,1.74-1.81,2.55-2.77a38.47,38.47,0,0,0,5.92-9.66,39,39,0,0,0-5.79-40,38.95,38.95,0,0,0-69,24.75c0,1.36.07,2.71.2,4a38.41,38.41,0,0,0,.61,3.89"/><path class="cls-3" d="M728.89,552.94a50.18,50.18,0,0,1-65.94,0,42.59,42.59,0,0,0-24.7,38.62v15.8a15.36,15.36,0,0,0,15.35,15.36h84.61a15.36,15.36,0,0,0,15.35-15.36V591.55a42.59,42.59,0,0,0-24.68-38.61"/><path class="cls-3" d="M663.73,536.79a38.37,38.37,0,0,0,2.47,3.2,34.15,34.15,0,0,0,2.38,2.57c.85.81,1.8,1.69,2.75,2.47a38.93,38.93,0,0,0,43,4.12,39.94,39.94,0,0,0,6.17-4.12c1-.78,1.87-1.6,2.75-2.47a41,41,0,0,0,4.83-5.77c.71-1,1.37-2.12,2-3.22a38.94,38.94,0,0,0-55.92-51,40.3,40.3,0,0,0-5.77,4.74,39,39,0,0,0-9.63,39.22,38.38,38.38,0,0,0,5,10.25"/><path class="cls-3" d="M362.17,552.94a50.18,50.18,0,0,1-65.94,0,42.58,42.58,0,0,0-24.71,38.62v15.8a15.36,15.36,0,0,0,15.34,15.36H371.5a15.34,15.34,0,0,0,15.34-15.35h0V591.55a42.58,42.58,0,0,0-24.67-38.61"/><path class="cls-3" d="M295,533.57a39,39,0,0,0,6.84,9c.87.85,1.79,1.68,2.74,2.45a38.81,38.81,0,0,0,43,4.1A39.85,39.85,0,0,0,353.8,545c.95-.76,1.87-1.6,2.74-2.45a38.74,38.74,0,0,0,4.83-5.79q1.06-1.56,2-3.21a38.27,38.27,0,0,0,3-7,38.93,38.93,0,0,0-58.91-43.95,38.06,38.06,0,0,0-5.77,4.75,40.45,40.45,0,0,0-4.77,5.75A39,39,0,0,0,292,526.5a37.4,37.4,0,0,0,3,7"/></svg>