<?xml version="1.0" encoding="utf-8"?>
<!-- Generator: Adobe Illustrator 23.0.0, SVG Export Plug-In . SVG Version: 6.00 Build 0)  -->
<svg version="1.1" id="Layer_1" xmlns="http://www.w3.org/2000/svg" xmlns:xlink="http://www.w3.org/1999/xlink" x="0px" y="0px"
	 viewBox="0 0 1000 1000" style="enable-background:new 0 0 1000 1000;" xml:space="preserve">
<style type="text/css">
	.st0{fill:#999999;}
</style>
<g>
	<path class="st0" d="M539.44,16.91c-3.73,4.25-7.49,8.48-11.29,12.65c-3.79,4.18-7.58,8.37-11.43,12.48
		c-7.65,8.28-15.33,16.52-23.1,24.66c-15.51,16.31-31.19,32.41-47,48.36c-15.81,15.95-31.73,31.75-47.79,47.39
		c-16.03,15.68-32.2,31.18-48.43,46.6l-0.34-45.18c9.62,6.59,19.28,13.12,28.85,19.78l14.38,9.94l14.33,10.01
		c9.56,6.66,19.08,13.39,28.58,20.12c9.53,6.71,18.98,13.51,28.45,20.29c18.92,13.58,37.76,27.26,56.51,41.05
		c9.4,6.86,18.73,13.82,28.08,20.75c9.36,6.92,18.67,13.9,27.96,20.9l38.86,29.25l-36.51,35.44
		c-22.67,22.01-45.56,43.77-68.52,65.46l-34.58,32.39l-34.79,32.16l-35,31.93c-11.74,10.56-23.4,21.21-35.2,31.7
		c-11.79,10.51-23.54,21.06-35.42,31.47l-17.77,15.67l-17.86,15.57l2.96-59.51c10.09,11.87,20.05,23.87,30.06,35.82
		c5.01,5.97,9.94,12.01,14.92,18.01l14.87,18.05c9.86,12.08,19.75,24.14,29.52,36.3c9.83,12.11,19.53,24.34,29.26,36.53l22.6,28.31
		l-25.1,20.35c-22.85,18.52-45.8,36.93-68.96,55.12c-23.17,18.17-46.5,36.17-70.04,53.93c-23.54,17.76-47.29,35.3-71.32,52.53
		c-12.03,8.6-24.11,17.14-36.3,25.56c-12.22,8.39-24.44,16.78-36.95,24.85c9.17-11.73,18.63-23.14,28.1-34.55
		c9.49-11.38,19.09-22.64,28.75-33.83c19.34-22.36,38.96-44.42,58.78-66.26c19.82-21.83,39.86-43.43,60.06-64.86
		c20.21-21.41,40.62-42.6,61.14-63.67l-2.5,48.66c-11.01-11.06-22.04-22.09-32.96-33.23c-10.97-11.09-21.82-22.29-32.7-33.46
		l-16.24-16.83c-5.39-5.63-10.84-11.21-16.19-16.87c-10.74-11.3-21.52-22.56-32.17-33.94l-27.8-29.72l30.76-29.79l17.02-16.49
		l17.11-16.39c11.38-10.95,22.88-21.77,34.35-32.64c11.45-10.87,23.04-21.6,34.56-32.4l34.77-32.18l34.98-31.95l35.19-31.72
		c23.55-21.05,47.17-42.02,71.01-62.75l2.35,64.69c-8.93-7.46-17.85-14.93-26.72-22.47c-8.88-7.52-17.78-15.02-26.6-22.61
		c-17.7-15.12-35.32-30.35-52.85-45.68c-8.76-7.68-17.53-15.33-26.23-23.08c-8.72-7.72-17.44-15.45-26.1-23.24l-13.01-11.67
		l-12.96-11.74c-8.66-7.8-17.22-15.72-25.83-23.59l-28.12-25.71l27.77-19.47c18.34-12.86,36.73-25.64,55.27-38.25
		c18.51-12.64,37.15-25.12,55.92-37.46c18.76-12.34,37.65-24.52,56.71-36.49c9.52-6,19.12-11.9,28.75-17.76
		c4.8-2.95,9.65-5.84,14.5-8.73C529.64,22.57,534.53,19.73,539.44,16.91z"/>
</g>
<g>
	<path class="st0" d="M848.66,16.91c-3.73,4.25-7.49,8.48-11.29,12.65c-3.79,4.18-7.58,8.37-11.43,12.48
		c-7.65,8.28-15.33,16.52-23.1,24.66c-15.51,16.31-31.19,32.41-47,48.36c-15.81,15.95-31.73,31.75-47.79,47.39
		c-16.03,15.68-32.2,31.18-48.43,46.6l-0.34-45.18c9.62,6.59,19.28,13.12,28.85,19.78l14.38,9.94l14.33,10.01
		c9.56,6.66,19.08,13.39,28.58,20.12c9.53,6.71,18.98,13.51,28.45,20.29c18.92,13.58,37.76,27.26,56.51,41.05
		c9.4,6.86,18.73,13.82,28.08,20.75c9.36,6.92,18.67,13.9,27.96,20.9l38.86,29.25l-36.51,35.44
		c-22.67,22.01-45.56,43.77-68.52,65.46l-34.58,32.39l-34.79,32.16l-35,31.93c-11.74,10.56-23.4,21.21-35.2,31.7
		c-11.79,10.51-23.54,21.06-35.42,31.47l-17.77,15.67l-17.86,15.57l2.96-59.51c10.09,11.87,20.05,23.87,30.06,35.82
		c5.01,5.97,9.94,12.01,14.92,18.01l14.87,18.05c9.86,12.08,19.75,24.14,29.52,36.3c9.83,12.11,19.53,24.34,29.26,36.53l22.6,28.31
		l-25.1,20.35c-22.85,18.52-45.8,36.93-68.96,55.12c-23.17,18.17-46.5,36.17-70.04,53.93c-23.54,17.76-47.29,35.3-71.32,52.53
		c-12.03,8.6-24.11,17.14-36.3,25.56c-12.22,8.39-24.44,16.78-36.95,24.85c9.17-11.73,18.63-23.14,28.1-34.55
		c9.49-11.38,19.09-22.64,28.75-33.83c19.34-22.36,38.96-44.42,58.78-66.26c19.82-21.83,39.86-43.43,60.06-64.86
		c20.21-21.41,40.62-42.6,61.14-63.67l-2.5,48.66c-11.01-11.06-22.04-22.09-32.96-33.23c-10.97-11.09-21.82-22.29-32.7-33.46
		l-16.24-16.83c-5.39-5.63-10.84-11.21-16.19-16.87c-10.74-11.3-21.52-22.56-32.17-33.94l-27.8-29.72l30.76-29.79l17.02-16.49
		l17.11-16.39c11.38-10.95,22.88-21.77,34.35-32.64c11.45-10.87,23.04-21.6,34.56-32.4L690,455.16l34.98-31.95l35.19-31.72
		c23.55-21.05,47.17-42.02,71.01-62.75l2.35,64.69c-8.93-7.46-17.85-14.93-26.72-22.47c-8.88-7.52-17.78-15.02-26.6-22.61
		c-17.7-15.12-35.32-30.35-52.85-45.68c-8.76-7.68-17.53-15.33-26.23-23.08c-8.72-7.72-17.44-15.45-26.1-23.24l-13.01-11.67
		l-12.96-11.74c-8.66-7.8-17.22-15.72-25.83-23.59l-28.12-25.71l27.77-19.47c18.34-12.86,36.73-25.64,55.27-38.25
		c18.51-12.64,37.15-25.12,55.92-37.46c18.76-12.34,37.65-24.52,56.71-36.49c9.52-6,19.12-11.9,28.75-17.76
		c4.8-2.95,9.65-5.84,14.5-8.73C838.86,22.57,843.75,19.73,848.66,16.91z"/>
</g>
</svg>
